<svg width="1280" height="720" viewBox="0 0 1280 720" fill="none" xmlns="http://www.w3.org/2000/svg">
<g clip-path="url(#clip0_11_2)">
<rect width="1280" height="720" fill="#2D2D2D"/>
<path d="M0 0H338V900H0V0Z" fill="#444444"/>
<path d="M61.5686 31L80 71H40L61.5686 31Z" fill="#323232"/>
<line x1="95" y1="51.5" x2="217" y2="51.5" stroke="#323232" stroke-width="15"/>
<rect x="40" y="132" width="260" height="55" fill="#323232"/>
<rect x="40" y="226" width="260" height="55" fill="#323232"/>
<rect x="40" y="319" width="260" height="55" fill="#323232"/>
<rect x="40" y="413" width="260" height="55" fill="#323232"/>
<rect x="40" y="507" width="260" height="55" fill="#323232"/>
<line x1="483" y1="106.5" x2="633" y2="106.5" stroke="#545454" stroke-width="23"/>
<line x1="483" y1="146.5" x2="843" y2="146.5" stroke="#545454" stroke-width="23"/>
<line x1="483" y1="186.5" x2="723" y2="186.5" stroke="#545454" stroke-width="23"/>
<rect x="483" y="240" width="427" height="258" fill="#444444"/>
<rect x="483" y="557" width="189" height="55" fill="#111111"/>
<rect x="722" y="557" width="189" height="55" fill="#111111"/>
<path d="M862.993 648.896V592.325L904.007 633.339H879.964L878.55 633.693L862.993 648.896Z" fill="white"/>
<path d="M895.168 651.371L882.439 656.675L865.821 617.429L878.903 612.125L895.168 651.371Z" fill="white"/>
<path d="M879.521 622.798L873 625.535L883.949 651.617L890.47 648.88L879.521 622.798Z" fill="black"/>
<path d="M866.529 600.811V640.411L877.136 630.157L878.55 629.804H895.522L866.529 600.811Z" fill="black"/>
<path d="M527.578 593V577H533.703C534.859 577 535.82 577.182 536.586 577.547C537.357 577.906 537.932 578.398 538.313 579.023C538.698 579.648 538.891 580.357 538.891 581.148C538.891 581.799 538.766 582.357 538.516 582.82C538.266 583.279 537.93 583.651 537.508 583.937C537.086 584.224 536.615 584.43 536.094 584.555V584.711C536.661 584.742 537.206 584.917 537.727 585.234C538.253 585.547 538.682 585.99 539.016 586.562C539.349 587.135 539.516 587.828 539.516 588.641C539.516 589.469 539.315 590.214 538.914 590.875C538.513 591.531 537.909 592.049 537.102 592.43C536.294 592.81 535.279 593 534.055 593H527.578ZM530.477 590.578H533.594C534.646 590.578 535.404 590.378 535.867 589.977C536.336 589.57 536.57 589.049 536.57 588.414C536.57 587.94 536.453 587.513 536.219 587.133C535.984 586.747 535.651 586.445 535.219 586.227C534.786 586.003 534.271 585.891 533.672 585.891H530.477V590.578ZM530.477 583.805H533.344C533.844 583.805 534.294 583.714 534.695 583.531C535.096 583.344 535.411 583.081 535.641 582.742C535.875 582.398 535.992 581.992 535.992 581.523C535.992 580.904 535.773 580.393 535.336 579.992C534.904 579.591 534.26 579.391 533.406 579.391H530.477V583.805ZM552.123 577H555.021V587.453C555.021 588.599 554.751 589.607 554.209 590.477C553.673 591.346 552.917 592.026 551.943 592.516C550.969 593 549.831 593.242 548.529 593.242C547.222 593.242 546.081 593 545.107 592.516C544.133 592.026 543.378 591.346 542.842 590.477C542.305 589.607 542.037 588.599 542.037 587.453V577H544.936V587.211C544.936 587.878 545.081 588.471 545.373 588.992C545.67 589.513 546.087 589.922 546.623 590.219C547.16 590.51 547.795 590.656 548.529 590.656C549.264 590.656 549.899 590.51 550.436 590.219C550.977 589.922 551.394 589.513 551.686 588.992C551.977 588.471 552.123 587.878 552.123 587.211V577ZM557.078 577H560.352L564.266 584.078H564.422L568.336 577H571.609L565.789 587.031V593H562.898V587.031L557.078 577ZM578.416 579.43V577H591.182V579.43H586.236V593H583.361V579.43H578.416ZM593.643 593V577H596.541V583.773H603.955V577H606.861V593H603.955V586.203H596.541V593H593.643ZM612.912 577V593H610.014V577H612.912ZM624.746 581.398C624.673 580.716 624.366 580.185 623.824 579.805C623.288 579.424 622.59 579.234 621.73 579.234C621.126 579.234 620.608 579.326 620.176 579.508C619.743 579.69 619.413 579.937 619.184 580.25C618.954 580.562 618.837 580.919 618.832 581.32C618.832 581.654 618.908 581.943 619.059 582.187C619.215 582.432 619.426 582.641 619.691 582.812C619.957 582.979 620.251 583.12 620.574 583.234C620.897 583.349 621.223 583.445 621.551 583.523L623.051 583.898C623.655 584.039 624.236 584.229 624.793 584.469C625.355 584.708 625.858 585.01 626.301 585.375C626.749 585.74 627.103 586.18 627.363 586.695C627.624 587.211 627.754 587.815 627.754 588.508C627.754 589.445 627.514 590.271 627.035 590.984C626.556 591.693 625.863 592.247 624.957 592.648C624.056 593.044 622.965 593.242 621.684 593.242C620.439 593.242 619.358 593.049 618.441 592.664C617.53 592.279 616.816 591.716 616.301 590.977C615.79 590.237 615.514 589.336 615.473 588.273H618.324C618.366 588.831 618.538 589.294 618.84 589.664C619.142 590.034 619.535 590.31 620.02 590.492C620.509 590.674 621.056 590.766 621.66 590.766C622.29 590.766 622.842 590.672 623.316 590.484C623.796 590.292 624.171 590.026 624.441 589.687C624.712 589.344 624.85 588.943 624.855 588.484C624.85 588.068 624.728 587.724 624.488 587.453C624.249 587.177 623.913 586.948 623.48 586.766C623.053 586.578 622.553 586.411 621.98 586.266L620.16 585.797C618.842 585.458 617.801 584.945 617.035 584.258C616.275 583.565 615.895 582.646 615.895 581.5C615.895 580.557 616.15 579.732 616.66 579.023C617.176 578.315 617.876 577.766 618.762 577.375C619.647 576.979 620.65 576.781 621.77 576.781C622.905 576.781 623.9 576.979 624.754 577.375C625.613 577.766 626.288 578.31 626.777 579.008C627.267 579.701 627.52 580.497 627.535 581.398H624.746Z" fill="white"/>
<path d="M770.273 581.398C770.201 580.716 769.893 580.185 769.352 579.805C768.815 579.424 768.117 579.234 767.258 579.234C766.654 579.234 766.135 579.326 765.703 579.508C765.271 579.69 764.94 579.937 764.711 580.25C764.482 580.562 764.365 580.919 764.359 581.32C764.359 581.654 764.435 581.943 764.586 582.187C764.742 582.432 764.953 582.641 765.219 582.812C765.484 582.979 765.779 583.12 766.102 583.234C766.424 583.349 766.75 583.445 767.078 583.523L768.578 583.898C769.182 584.039 769.763 584.229 770.32 584.469C770.883 584.708 771.385 585.01 771.828 585.375C772.276 585.74 772.63 586.18 772.891 586.695C773.151 587.211 773.281 587.815 773.281 588.508C773.281 589.445 773.042 590.271 772.563 590.984C772.083 591.693 771.391 592.247 770.484 592.648C769.583 593.044 768.492 593.242 767.211 593.242C765.966 593.242 764.885 593.049 763.969 592.664C763.057 592.279 762.344 591.716 761.828 590.977C761.318 590.237 761.042 589.336 761 588.273H763.852C763.893 588.831 764.065 589.294 764.367 589.664C764.669 590.034 765.063 590.31 765.547 590.492C766.036 590.674 766.583 590.766 767.188 590.766C767.818 590.766 768.37 590.672 768.844 590.484C769.323 590.292 769.698 590.026 769.969 589.687C770.24 589.344 770.378 588.943 770.383 588.484C770.378 588.068 770.255 587.724 770.016 587.453C769.776 587.177 769.44 586.948 769.008 586.766C768.581 586.578 768.081 586.411 767.508 586.266L765.688 585.797C764.37 585.458 763.328 584.945 762.563 584.258C761.802 583.565 761.422 582.646 761.422 581.5C761.422 580.557 761.677 579.732 762.188 579.023C762.703 578.315 763.404 577.766 764.289 577.375C765.174 576.979 766.177 576.781 767.297 576.781C768.432 576.781 769.427 576.979 770.281 577.375C771.141 577.766 771.815 578.31 772.305 579.008C772.794 579.701 773.047 580.497 773.062 581.398H770.273ZM775.865 593V577H786.271V579.43H778.764V583.773H785.732V586.203H778.764V590.57H786.334V593H775.865ZM789.229 593V577H792.127V590.57H799.174V593H789.229ZM801.689 593V577H812.096V579.43H804.588V583.773H811.557V586.203H804.588V590.57H812.158V593H801.689ZM828.748 582.398H825.826C825.743 581.919 825.589 581.495 825.365 581.125C825.141 580.75 824.863 580.432 824.529 580.172C824.196 579.911 823.816 579.716 823.389 579.586C822.967 579.451 822.511 579.383 822.021 579.383C821.152 579.383 820.381 579.602 819.709 580.039C819.037 580.471 818.511 581.107 818.131 581.945C817.751 582.779 817.561 583.797 817.561 585C817.561 586.224 817.751 587.255 818.131 588.094C818.516 588.927 819.042 589.557 819.709 589.984C820.381 590.406 821.149 590.617 822.014 590.617C822.493 590.617 822.941 590.555 823.357 590.43C823.779 590.299 824.157 590.109 824.49 589.859C824.829 589.609 825.113 589.302 825.342 588.937C825.576 588.573 825.738 588.156 825.826 587.687L828.748 587.703C828.639 588.464 828.402 589.177 828.037 589.844C827.678 590.51 827.206 591.099 826.623 591.609C826.04 592.115 825.357 592.51 824.576 592.797C823.795 593.078 822.928 593.219 821.975 593.219C820.568 593.219 819.313 592.893 818.209 592.242C817.105 591.591 816.235 590.651 815.6 589.422C814.964 588.193 814.646 586.719 814.646 585C814.646 583.276 814.967 581.802 815.607 580.578C816.248 579.349 817.12 578.409 818.225 577.758C819.329 577.107 820.579 576.781 821.975 576.781C822.865 576.781 823.693 576.906 824.459 577.156C825.225 577.406 825.907 577.773 826.506 578.258C827.105 578.737 827.597 579.326 827.982 580.023C828.373 580.716 828.628 581.508 828.748 582.398ZM830.699 579.43V577H843.465V579.43H838.52V593H835.645V579.43H830.699ZM845.926 593V577H856.332V579.43H848.824V583.773H855.793V586.203H848.824V590.57H856.395V593H845.926ZM864.711 593H859.289V577H864.82C866.409 577 867.773 577.32 868.914 577.961C870.06 578.596 870.94 579.51 871.555 580.703C872.169 581.896 872.477 583.323 872.477 584.984C872.477 586.651 872.167 588.083 871.547 589.281C870.932 590.479 870.044 591.398 868.883 592.039C867.727 592.68 866.336 593 864.711 593ZM862.188 590.492H864.57C865.685 590.492 866.615 590.289 867.359 589.883C868.104 589.471 868.664 588.859 869.039 588.047C869.414 587.229 869.602 586.208 869.602 584.984C869.602 583.76 869.414 582.745 869.039 581.937C868.664 581.125 868.109 580.518 867.375 580.117C866.646 579.711 865.74 579.508 864.656 579.508H862.188V590.492Z" fill="white"/>
<path d="M67.2969 157.109C67.1667 156.687 66.987 156.31 66.7578 155.977C66.5339 155.638 66.263 155.349 65.9453 155.109C65.6328 154.87 65.2734 154.69 64.8672 154.57C64.4609 154.445 64.0182 154.383 63.5391 154.383C62.6797 154.383 61.9141 154.599 61.2422 155.031C60.5703 155.464 60.0417 156.099 59.6563 156.937C59.276 157.771 59.0859 158.786 59.0859 159.984C59.0859 161.193 59.276 162.216 59.6563 163.055C60.0365 163.893 60.5651 164.531 61.2422 164.969C61.9193 165.401 62.7057 165.617 63.6016 165.617C64.4141 165.617 65.1172 165.461 65.7109 165.148C66.3099 164.836 66.7708 164.393 67.0938 163.82C67.4167 163.242 67.5781 162.565 67.5781 161.789L68.2344 161.891H63.8906V159.625H70.3828V161.547C70.3828 162.917 70.0911 164.102 69.5078 165.102C68.9245 166.102 68.1224 166.872 67.1016 167.414C66.0807 167.951 64.9089 168.219 63.5859 168.219C62.112 168.219 60.8177 167.888 59.7031 167.227C58.5938 166.56 57.7266 165.615 57.1016 164.391C56.4818 163.161 56.1719 161.703 56.1719 160.016C56.1719 158.724 56.3542 157.57 56.7188 156.555C57.0885 155.539 57.6042 154.677 58.2656 153.969C58.9271 153.255 59.7031 152.714 60.5938 152.344C61.4844 151.969 62.4531 151.781 63.5 151.781C64.3854 151.781 65.2109 151.911 65.9766 152.172C66.7422 152.427 67.4219 152.792 68.0156 153.266C68.6146 153.74 69.1068 154.302 69.4922 154.953C69.8776 155.604 70.1302 156.323 70.25 157.109H67.2969ZM73.1855 168V152H83.5918V154.43H76.084V158.773H83.0527V161.203H76.084V165.57H83.6543V168H73.1855ZM85.8457 154.43V152H98.6113V154.43H93.666V168H90.791V154.43H85.8457ZM115.225 156.398C115.152 155.716 114.844 155.185 114.303 154.805C113.766 154.424 113.068 154.234 112.209 154.234C111.605 154.234 111.087 154.326 110.654 154.508C110.222 154.69 109.891 154.937 109.662 155.25C109.433 155.562 109.316 155.919 109.311 156.32C109.311 156.654 109.386 156.943 109.537 157.187C109.693 157.432 109.904 157.641 110.17 157.812C110.436 157.979 110.73 158.12 111.053 158.234C111.376 158.349 111.701 158.445 112.029 158.523L113.529 158.898C114.133 159.039 114.714 159.229 115.271 159.469C115.834 159.708 116.337 160.01 116.779 160.375C117.227 160.74 117.581 161.18 117.842 161.695C118.102 162.211 118.232 162.815 118.232 163.508C118.232 164.445 117.993 165.271 117.514 165.984C117.035 166.693 116.342 167.247 115.436 167.648C114.535 168.044 113.443 168.242 112.162 168.242C110.917 168.242 109.837 168.049 108.92 167.664C108.008 167.279 107.295 166.716 106.779 165.977C106.269 165.237 105.993 164.336 105.951 163.273H108.803C108.844 163.831 109.016 164.294 109.318 164.664C109.62 165.034 110.014 165.31 110.498 165.492C110.988 165.674 111.535 165.766 112.139 165.766C112.769 165.766 113.321 165.672 113.795 165.484C114.274 165.292 114.649 165.026 114.92 164.687C115.191 164.344 115.329 163.943 115.334 163.484C115.329 163.068 115.206 162.724 114.967 162.453C114.727 162.177 114.391 161.948 113.959 161.766C113.532 161.578 113.032 161.411 112.459 161.266L110.639 160.797C109.321 160.458 108.279 159.945 107.514 159.258C106.753 158.565 106.373 157.646 106.373 156.5C106.373 155.557 106.628 154.732 107.139 154.023C107.654 153.315 108.355 152.766 109.24 152.375C110.126 151.979 111.128 151.781 112.248 151.781C113.383 151.781 114.378 151.979 115.232 152.375C116.092 152.766 116.766 153.31 117.256 154.008C117.745 154.701 117.998 155.497 118.014 156.398H115.225ZM120.113 154.43V152H132.879V154.43H127.934V168H125.059V154.43H120.113ZM135.461 168H132.367L138 152H141.578L147.219 168H144.125L139.852 155.281H139.727L135.461 168ZM135.563 161.727H144V164.055H135.563V161.727ZM149.326 168V152H155.326C156.555 152 157.587 152.214 158.42 152.641C159.258 153.068 159.891 153.667 160.318 154.437C160.751 155.203 160.967 156.096 160.967 157.117C160.967 158.143 160.748 159.034 160.311 159.789C159.878 160.539 159.24 161.12 158.396 161.531C157.553 161.937 156.516 162.141 155.287 162.141H151.014V159.734H154.896C155.615 159.734 156.204 159.635 156.662 159.437C157.12 159.234 157.459 158.94 157.678 158.555C157.902 158.164 158.014 157.685 158.014 157.117C158.014 156.549 157.902 156.065 157.678 155.664C157.454 155.258 157.113 154.951 156.654 154.742C156.196 154.529 155.605 154.422 154.881 154.422H152.225V168H149.326ZM157.592 160.75L161.553 168H158.318L154.428 160.75H157.592ZM162.932 154.43V152H175.697V154.43H170.752V168H167.877V154.43H162.932ZM178.158 168V152H188.564V154.43H181.057V158.773H188.025V161.203H181.057V165.57H188.627V168H178.158ZM196.943 168H191.521V152H197.053C198.641 152 200.006 152.32 201.146 152.961C202.292 153.596 203.173 154.51 203.787 155.703C204.402 156.896 204.709 158.323 204.709 159.984C204.709 161.651 204.399 163.083 203.779 164.281C203.165 165.479 202.277 166.398 201.115 167.039C199.959 167.68 198.568 168 196.943 168ZM194.42 165.492H196.803C197.917 165.492 198.847 165.289 199.592 164.883C200.337 164.471 200.896 163.859 201.271 163.047C201.646 162.229 201.834 161.208 201.834 159.984C201.834 158.76 201.646 157.745 201.271 156.937C200.896 156.125 200.342 155.518 199.607 155.117C198.878 154.711 197.972 154.508 196.889 154.508H194.42V165.492Z" fill="#D6D6D6"/>
<path d="M59.9453 262L55.4297 246H58.5469L61.4297 257.758H61.5781L64.6563 246H67.4922L70.5781 257.766H70.7188L73.6016 246H76.7188L72.2031 262H69.3438L66.1406 250.773H66.0156L62.8047 262H59.9453ZM78.7285 262V246H89.1348V248.43H81.627V252.773H88.5957V255.203H81.627V259.57H89.1973V262H78.7285ZM92.0918 262V246H98.2168C99.373 246 100.334 246.182 101.1 246.547C101.87 246.906 102.446 247.398 102.826 248.023C103.212 248.648 103.404 249.357 103.404 250.148C103.404 250.799 103.279 251.357 103.029 251.82C102.779 252.279 102.443 252.651 102.021 252.937C101.6 253.224 101.128 253.43 100.607 253.555V253.711C101.175 253.742 101.719 253.917 102.24 254.234C102.766 254.547 103.196 254.99 103.529 255.562C103.863 256.135 104.029 256.828 104.029 257.641C104.029 258.469 103.829 259.214 103.428 259.875C103.027 260.531 102.423 261.049 101.615 261.43C100.808 261.81 99.7923 262 98.5684 262H92.0918ZM94.9902 259.578H98.1074C99.1595 259.578 99.9173 259.378 100.381 258.977C100.85 258.57 101.084 258.049 101.084 257.414C101.084 256.94 100.967 256.513 100.732 256.133C100.498 255.747 100.165 255.445 99.7324 255.227C99.3001 255.003 98.7845 254.891 98.1855 254.891H94.9902V259.578ZM94.9902 252.805H97.8574C98.3574 252.805 98.8079 252.714 99.209 252.531C99.61 252.344 99.9251 252.081 100.154 251.742C100.389 251.398 100.506 250.992 100.506 250.523C100.506 249.904 100.287 249.393 99.8496 248.992C99.4173 248.591 98.7741 248.391 97.9199 248.391H94.9902V252.805ZM111.305 248.43V246H124.07V248.43H119.125V262H116.25V248.43H111.305ZM126.531 262V246H136.937V248.43H129.43V252.773H136.398V255.203H129.43V259.57H137V262H126.531ZM139.895 246H143.441L148.191 257.594H148.379L153.129 246H156.676V262H153.895V251.008H153.746L149.324 261.953H147.246L142.824 250.984H142.676V262H139.895V246ZM159.832 262V246H165.832C167.061 246 168.092 246.229 168.926 246.687C169.764 247.146 170.397 247.776 170.824 248.578C171.257 249.375 171.473 250.281 171.473 251.297C171.473 252.323 171.257 253.234 170.824 254.031C170.392 254.828 169.754 255.456 168.91 255.914C168.066 256.367 167.027 256.594 165.793 256.594H161.816V254.211H165.402C166.121 254.211 166.71 254.086 167.168 253.836C167.626 253.586 167.965 253.242 168.184 252.805C168.408 252.367 168.52 251.865 168.52 251.297C168.52 250.729 168.408 250.229 168.184 249.797C167.965 249.365 167.624 249.029 167.16 248.789C166.702 248.544 166.111 248.422 165.387 248.422H162.73V262H159.832ZM173.99 262V246H176.889V259.57H183.936V262H173.99ZM189.107 262H186.014L191.646 246H195.225L200.865 262H197.771L193.498 249.281H193.373L189.107 262ZM189.209 255.727H197.646V258.055H189.209V255.727ZM200.336 248.43V246H213.102V248.43H208.156V262H205.281V248.43H200.336ZM215.562 262V246H225.969V248.43H218.461V252.773H225.43V255.203H218.461V259.57H226.031V262H215.562ZM237.621 250.398C237.548 249.716 237.241 249.185 236.699 248.805C236.163 248.424 235.465 248.234 234.605 248.234C234.001 248.234 233.483 248.326 233.051 248.508C232.618 248.69 232.288 248.937 232.059 249.25C231.829 249.562 231.712 249.919 231.707 250.32C231.707 250.654 231.783 250.943 231.934 251.187C232.09 251.432 232.301 251.641 232.566 251.812C232.832 251.979 233.126 252.12 233.449 252.234C233.772 252.349 234.098 252.445 234.426 252.523L235.926 252.898C236.53 253.039 237.111 253.229 237.668 253.469C238.23 253.708 238.733 254.01 239.176 254.375C239.624 254.74 239.978 255.18 240.238 255.695C240.499 256.211 240.629 256.815 240.629 257.508C240.629 258.445 240.389 259.271 239.91 259.984C239.431 260.693 238.738 261.247 237.832 261.648C236.931 262.044 235.84 262.242 234.559 262.242C233.314 262.242 232.233 262.049 231.316 261.664C230.405 261.279 229.691 260.716 229.176 259.977C228.665 259.237 228.389 258.336 228.348 257.273H231.199C231.241 257.831 231.413 258.294 231.715 258.664C232.017 259.034 232.41 259.31 232.895 259.492C233.384 259.674 233.931 259.766 234.535 259.766C235.165 259.766 235.717 259.672 236.191 259.484C236.671 259.292 237.046 259.026 237.316 258.687C237.587 258.344 237.725 257.943 237.73 257.484C237.725 257.068 237.603 256.724 237.363 256.453C237.124 256.177 236.788 255.948 236.355 255.766C235.928 255.578 235.428 255.411 234.855 255.266L233.035 254.797C231.717 254.458 230.676 253.945 229.91 253.258C229.15 252.565 228.77 251.646 228.77 250.5C228.77 249.557 229.025 248.732 229.535 248.023C230.051 247.315 230.751 246.766 231.637 246.375C232.522 245.979 233.525 245.781 234.645 245.781C235.78 245.781 236.775 245.979 237.629 246.375C238.488 246.766 239.163 247.31 239.652 248.008C240.142 248.701 240.395 249.497 240.41 250.398H237.621Z" fill="#D6D6D6"/>
<path d="M70.2734 344.398H67.3516C67.2682 343.919 67.1146 343.495 66.8906 343.125C66.6667 342.75 66.388 342.432 66.0547 342.172C65.7214 341.911 65.3411 341.716 64.9141 341.586C64.4922 341.451 64.0365 341.383 63.5469 341.383C62.6771 341.383 61.9063 341.602 61.2344 342.039C60.5625 342.471 60.0365 343.107 59.6563 343.945C59.276 344.779 59.0859 345.797 59.0859 347C59.0859 348.224 59.276 349.255 59.6563 350.094C60.0417 350.927 60.5677 351.557 61.2344 351.984C61.9063 352.406 62.6745 352.617 63.5391 352.617C64.0182 352.617 64.4661 352.555 64.8828 352.43C65.3047 352.299 65.6823 352.109 66.0156 351.859C66.3542 351.609 66.638 351.302 66.8672 350.937C67.1016 350.573 67.263 350.156 67.3516 349.687L70.2734 349.703C70.1641 350.464 69.9271 351.177 69.5625 351.844C69.2031 352.51 68.7318 353.099 68.1484 353.609C67.5651 354.115 66.8828 354.51 66.1016 354.797C65.3203 355.078 64.4531 355.219 63.5 355.219C62.0938 355.219 60.8385 354.893 59.7344 354.242C58.6302 353.591 57.7604 352.651 57.125 351.422C56.4896 350.193 56.1719 348.719 56.1719 347C56.1719 345.276 56.4922 343.802 57.1328 342.578C57.7734 341.349 58.6458 340.409 59.75 339.758C60.8542 339.107 62.1042 338.781 63.5 338.781C64.3906 338.781 65.2188 338.906 65.9844 339.156C66.75 339.406 67.4323 339.773 68.0313 340.258C68.6302 340.737 69.1224 341.326 69.5078 342.023C69.8984 342.716 70.1536 343.508 70.2734 344.398ZM72.9277 355V339H78.9277C80.1569 339 81.1882 339.214 82.0215 339.641C82.86 340.068 83.4928 340.667 83.9199 341.437C84.3522 342.203 84.5684 343.096 84.5684 344.117C84.5684 345.143 84.3496 346.034 83.9121 346.789C83.4798 347.539 82.8418 348.12 81.998 348.531C81.1543 348.937 80.1178 349.141 78.8887 349.141H74.6152V346.734H78.498C79.2168 346.734 79.8053 346.635 80.2637 346.437C80.722 346.234 81.0605 345.94 81.2793 345.555C81.5033 345.164 81.6152 344.685 81.6152 344.117C81.6152 343.549 81.5033 343.065 81.2793 342.664C81.0553 342.258 80.7142 341.951 80.2559 341.742C79.7975 341.529 79.2064 341.422 78.4824 341.422H75.8262V355H72.9277ZM81.1934 347.75L85.1543 355H81.9199L78.0293 347.75H81.1934ZM87.2363 355V339H97.6426V341.43H90.1348V345.773H97.1035V348.203H90.1348V352.57H97.7051V355H87.2363ZM102.654 355H99.5605L105.193 339H108.771L114.412 355H111.318L107.045 342.281H106.92L102.654 355ZM102.756 348.727H111.193V351.055H102.756V348.727ZM113.883 341.43V339H126.648V341.43H121.703V355H118.828V341.43H113.883ZM129.109 355V339H139.516V341.43H132.008V345.773H138.977V348.203H132.008V352.57H139.578V355H129.109ZM149.984 355H146.891L152.523 339H156.102L161.742 355H158.648L154.375 342.281H154.25L149.984 355ZM150.086 348.727H158.523V351.055H150.086V348.727ZM176.793 344.398H173.871C173.788 343.919 173.634 343.495 173.41 343.125C173.186 342.75 172.908 342.432 172.574 342.172C172.241 341.911 171.861 341.716 171.434 341.586C171.012 341.451 170.556 341.383 170.066 341.383C169.197 341.383 168.426 341.602 167.754 342.039C167.082 342.471 166.556 343.107 166.176 343.945C165.796 344.779 165.605 345.797 165.605 347C165.605 348.224 165.796 349.255 166.176 350.094C166.561 350.927 167.087 351.557 167.754 351.984C168.426 352.406 169.194 352.617 170.059 352.617C170.538 352.617 170.986 352.555 171.402 352.43C171.824 352.299 172.202 352.109 172.535 351.859C172.874 351.609 173.158 351.302 173.387 350.937C173.621 350.573 173.783 350.156 173.871 349.687L176.793 349.703C176.684 350.464 176.447 351.177 176.082 351.844C175.723 352.51 175.251 353.099 174.668 353.609C174.085 354.115 173.402 354.51 172.621 354.797C171.84 355.078 170.973 355.219 170.02 355.219C168.613 355.219 167.358 354.893 166.254 354.242C165.15 353.591 164.28 352.651 163.645 351.422C163.009 350.193 162.691 348.719 162.691 347C162.691 345.276 163.012 343.802 163.652 342.578C164.293 341.349 165.165 340.409 166.27 339.758C167.374 339.107 168.624 338.781 170.02 338.781C170.91 338.781 171.738 338.906 172.504 339.156C173.27 339.406 173.952 339.773 174.551 340.258C175.15 340.737 175.642 341.326 176.027 342.023C176.418 342.716 176.673 343.508 176.793 344.398ZM193.143 344.398H190.221C190.137 343.919 189.984 343.495 189.76 343.125C189.536 342.75 189.257 342.432 188.924 342.172C188.59 341.911 188.21 341.716 187.783 341.586C187.361 341.451 186.906 341.383 186.416 341.383C185.546 341.383 184.775 341.602 184.104 342.039C183.432 342.471 182.906 343.107 182.525 343.945C182.145 344.779 181.955 345.797 181.955 347C181.955 348.224 182.145 349.255 182.525 350.094C182.911 350.927 183.437 351.557 184.104 351.984C184.775 352.406 185.544 352.617 186.408 352.617C186.887 352.617 187.335 352.555 187.752 352.43C188.174 352.299 188.551 352.109 188.885 351.859C189.223 351.609 189.507 351.302 189.736 350.937C189.971 350.573 190.132 350.156 190.221 349.687L193.143 349.703C193.033 350.464 192.796 351.177 192.432 351.844C192.072 352.51 191.601 353.099 191.018 353.609C190.434 354.115 189.752 354.51 188.971 354.797C188.189 355.078 187.322 355.219 186.369 355.219C184.963 355.219 183.708 354.893 182.604 354.242C181.499 353.591 180.63 352.651 179.994 351.422C179.359 350.193 179.041 348.719 179.041 347C179.041 345.276 179.361 343.802 180.002 342.578C180.643 341.349 181.515 340.409 182.619 339.758C183.723 339.107 184.973 338.781 186.369 338.781C187.26 338.781 188.088 338.906 188.854 339.156C189.619 339.406 190.301 339.773 190.9 340.258C191.499 340.737 191.992 341.326 192.377 342.023C192.768 342.716 193.023 343.508 193.143 344.398ZM210.094 347C210.094 348.724 209.771 350.201 209.125 351.43C208.484 352.654 207.609 353.591 206.5 354.242C205.396 354.893 204.143 355.219 202.742 355.219C201.341 355.219 200.086 354.893 198.977 354.242C197.872 353.586 196.997 352.646 196.352 351.422C195.711 350.193 195.391 348.719 195.391 347C195.391 345.276 195.711 343.802 196.352 342.578C196.997 341.349 197.872 340.409 198.977 339.758C200.086 339.107 201.341 338.781 202.742 338.781C204.143 338.781 205.396 339.107 206.5 339.758C207.609 340.409 208.484 341.349 209.125 342.578C209.771 343.802 210.094 345.276 210.094 347ZM207.18 347C207.18 345.786 206.99 344.763 206.609 343.93C206.234 343.091 205.714 342.458 205.047 342.031C204.38 341.599 203.612 341.383 202.742 341.383C201.872 341.383 201.104 341.599 200.438 342.031C199.771 342.458 199.247 343.091 198.867 343.93C198.492 344.763 198.305 345.786 198.305 347C198.305 348.214 198.492 349.24 198.867 350.078C199.247 350.911 199.771 351.544 200.438 351.977C201.104 352.404 201.872 352.617 202.742 352.617C203.612 352.617 204.38 352.404 205.047 351.977C205.714 351.544 206.234 350.911 206.609 350.078C206.99 349.24 207.18 348.214 207.18 347ZM222.92 339H225.818V349.453C225.818 350.599 225.548 351.607 225.006 352.477C224.469 353.346 223.714 354.026 222.74 354.516C221.766 355 220.628 355.242 219.326 355.242C218.019 355.242 216.878 355 215.904 354.516C214.93 354.026 214.175 353.346 213.639 352.477C213.102 351.607 212.834 350.599 212.834 349.453V339H215.732V349.211C215.732 349.878 215.878 350.471 216.17 350.992C216.467 351.513 216.883 351.922 217.42 352.219C217.956 352.51 218.592 352.656 219.326 352.656C220.061 352.656 220.696 352.51 221.232 352.219C221.774 351.922 222.191 351.513 222.482 350.992C222.774 350.471 222.92 349.878 222.92 349.211V339ZM242.117 339V355H239.539L232 344.102H231.867V355H228.969V339H231.563L239.094 349.906H239.234V339H242.117ZM244.572 341.43V339H257.338V341.43H252.393V355H249.518V341.43H244.572Z" fill="#D6D6D6"/>
<path d="M65.2734 438.398C65.2005 437.716 64.8932 437.185 64.3516 436.805C63.8151 436.424 63.1172 436.234 62.2578 436.234C61.6536 436.234 61.1354 436.326 60.7031 436.508C60.2708 436.69 59.9401 436.937 59.7109 437.25C59.4818 437.562 59.3646 437.919 59.3594 438.32C59.3594 438.654 59.4349 438.943 59.5859 439.187C59.7422 439.432 59.9531 439.641 60.2188 439.812C60.4844 439.979 60.7786 440.12 61.1016 440.234C61.4245 440.349 61.75 440.445 62.0781 440.523L63.5781 440.898C64.1823 441.039 64.763 441.229 65.3203 441.469C65.8828 441.708 66.3854 442.01 66.8281 442.375C67.276 442.74 67.6302 443.18 67.8906 443.695C68.151 444.211 68.2813 444.815 68.2813 445.508C68.2813 446.445 68.0417 447.271 67.5625 447.984C67.0833 448.693 66.3906 449.247 65.4844 449.648C64.5833 450.044 63.4922 450.242 62.2109 450.242C60.9661 450.242 59.8854 450.049 58.9688 449.664C58.0573 449.279 57.3438 448.716 56.8281 447.977C56.3177 447.237 56.0417 446.336 56 445.273H58.8516C58.8932 445.831 59.0651 446.294 59.3672 446.664C59.6693 447.034 60.0625 447.31 60.5469 447.492C61.0365 447.674 61.5833 447.766 62.1875 447.766C62.8177 447.766 63.3698 447.672 63.8438 447.484C64.3229 447.292 64.6979 447.026 64.9688 446.687C65.2396 446.344 65.3776 445.943 65.3828 445.484C65.3776 445.068 65.2552 444.724 65.0156 444.453C64.776 444.177 64.4401 443.948 64.0078 443.766C63.5807 443.578 63.0807 443.411 62.5078 443.266L60.6875 442.797C59.3698 442.458 58.3281 441.945 57.5625 441.258C56.8021 440.565 56.4219 439.646 56.4219 438.5C56.4219 437.557 56.6771 436.732 57.1875 436.023C57.7031 435.315 58.4036 434.766 59.2891 434.375C60.1745 433.979 61.1771 433.781 62.2969 433.781C63.4323 433.781 64.4271 433.979 65.2813 434.375C66.1406 434.766 66.8151 435.31 67.3047 436.008C67.7943 436.701 68.0469 437.497 68.0625 438.398H65.2734ZM70.8652 450V434H81.2715V436.43H73.7637V440.773H80.7324V443.203H73.7637V447.57H81.334V450H70.8652ZM83.5254 436.43V434H96.291V436.43H91.3457V450H88.4707V436.43H83.5254ZM98.0488 436.43V434H110.814V436.43H105.869V450H102.994V436.43H98.0488ZM116.174 434V450H113.275V434H116.174ZM132.461 434V450H129.883L122.344 439.102H122.211V450H119.312V434H121.906L129.438 444.906H129.578V434H132.461ZM146.338 439.109C146.208 438.687 146.028 438.31 145.799 437.977C145.575 437.638 145.304 437.349 144.986 437.109C144.674 436.87 144.314 436.69 143.908 436.57C143.502 436.445 143.059 436.383 142.58 436.383C141.721 436.383 140.955 436.599 140.283 437.031C139.611 437.464 139.083 438.099 138.697 438.937C138.317 439.771 138.127 440.786 138.127 441.984C138.127 443.193 138.317 444.216 138.697 445.055C139.077 445.893 139.606 446.531 140.283 446.969C140.96 447.401 141.747 447.617 142.643 447.617C143.455 447.617 144.158 447.461 144.752 447.148C145.351 446.836 145.812 446.393 146.135 445.82C146.458 445.242 146.619 444.565 146.619 443.789L147.275 443.891H142.932V441.625H149.424V443.547C149.424 444.917 149.132 446.102 148.549 447.102C147.965 448.102 147.163 448.872 146.143 449.414C145.122 449.951 143.95 450.219 142.627 450.219C141.153 450.219 139.859 449.888 138.744 449.227C137.635 448.56 136.768 447.615 136.143 446.391C135.523 445.161 135.213 443.703 135.213 442.016C135.213 440.724 135.395 439.57 135.76 438.555C136.13 437.539 136.645 436.677 137.307 435.969C137.968 435.255 138.744 434.714 139.635 434.344C140.525 433.969 141.494 433.781 142.541 433.781C143.426 433.781 144.252 433.911 145.018 434.172C145.783 434.427 146.463 434.792 147.057 435.266C147.656 435.74 148.148 436.302 148.533 436.953C148.919 437.604 149.171 438.323 149.291 439.109H146.338ZM160.922 438.398C160.849 437.716 160.542 437.185 160 436.805C159.464 436.424 158.766 436.234 157.906 436.234C157.302 436.234 156.784 436.326 156.352 436.508C155.919 436.69 155.589 436.937 155.359 437.25C155.13 437.562 155.013 437.919 155.008 438.32C155.008 438.654 155.083 438.943 155.234 439.187C155.391 439.432 155.602 439.641 155.867 439.812C156.133 439.979 156.427 440.12 156.75 440.234C157.073 440.349 157.398 440.445 157.727 440.523L159.227 440.898C159.831 441.039 160.411 441.229 160.969 441.469C161.531 441.708 162.034 442.01 162.477 442.375C162.924 442.74 163.279 443.18 163.539 443.695C163.799 444.211 163.93 444.815 163.93 445.508C163.93 446.445 163.69 447.271 163.211 447.984C162.732 448.693 162.039 449.247 161.133 449.648C160.232 450.044 159.141 450.242 157.859 450.242C156.615 450.242 155.534 450.049 154.617 449.664C153.706 449.279 152.992 448.716 152.477 447.977C151.966 447.237 151.69 446.336 151.648 445.273H154.5C154.542 445.831 154.714 446.294 155.016 446.664C155.318 447.034 155.711 447.31 156.195 447.492C156.685 447.674 157.232 447.766 157.836 447.766C158.466 447.766 159.018 447.672 159.492 447.484C159.971 447.292 160.346 447.026 160.617 446.687C160.888 446.344 161.026 445.943 161.031 445.484C161.026 445.068 160.904 444.724 160.664 444.453C160.424 444.177 160.089 443.948 159.656 443.766C159.229 443.578 158.729 443.411 158.156 443.266L156.336 442.797C155.018 442.458 153.977 441.945 153.211 441.258C152.451 440.565 152.07 439.646 152.07 438.5C152.07 437.557 152.326 436.732 152.836 436.023C153.352 435.315 154.052 434.766 154.938 434.375C155.823 433.979 156.826 433.781 157.945 433.781C159.081 433.781 160.076 433.979 160.93 434.375C161.789 434.766 162.464 435.31 162.953 436.008C163.443 436.701 163.695 437.497 163.711 438.398H160.922Z" fill="#D6D6D6"/>
<path d="M56.5781 544V528H66.9844V530.43H59.4766V534.773H66.4453V537.203H59.4766V541.57H67.0469V544H56.5781ZM72.3633 528L75.8867 533.859H76.0117L79.5508 528H82.8555L77.9258 536L82.9336 544H79.5742L76.0117 538.18H75.8867L72.3242 544H68.9805L74.0352 536L69.043 528H72.3633ZM88.0293 528V544H85.1309V528H88.0293ZM90.4648 530.43V528H103.23V530.43H98.2852V544H95.4102V530.43H90.4648ZM110.445 530.43V528H123.211V530.43H118.266V544H115.391V530.43H110.445ZM125.672 544V528H128.57V534.773H135.984V528H138.891V544H135.984V537.203H128.57V544H125.672ZM144.941 528V544H142.043V528H144.941ZM156.775 532.398C156.702 531.716 156.395 531.185 155.854 530.805C155.317 530.424 154.619 530.234 153.76 530.234C153.156 530.234 152.637 530.326 152.205 530.508C151.773 530.69 151.442 530.937 151.213 531.25C150.984 531.562 150.867 531.919 150.861 532.32C150.861 532.654 150.937 532.943 151.088 533.187C151.244 533.432 151.455 533.641 151.721 533.812C151.986 533.979 152.281 534.12 152.604 534.234C152.926 534.349 153.252 534.445 153.58 534.523L155.08 534.898C155.684 535.039 156.265 535.229 156.822 535.469C157.385 535.708 157.887 536.01 158.33 536.375C158.778 536.74 159.132 537.18 159.393 537.695C159.653 538.211 159.783 538.815 159.783 539.508C159.783 540.445 159.544 541.271 159.064 541.984C158.585 542.693 157.893 543.247 156.986 543.648C156.085 544.044 154.994 544.242 153.713 544.242C152.468 544.242 151.387 544.049 150.471 543.664C149.559 543.279 148.846 542.716 148.33 541.977C147.82 541.237 147.544 540.336 147.502 539.273H150.354C150.395 539.831 150.567 540.294 150.869 540.664C151.171 541.034 151.564 541.31 152.049 541.492C152.538 541.674 153.085 541.766 153.689 541.766C154.32 541.766 154.872 541.672 155.346 541.484C155.825 541.292 156.2 541.026 156.471 540.687C156.742 540.344 156.88 539.943 156.885 539.484C156.88 539.068 156.757 538.724 156.518 538.453C156.278 538.177 155.942 537.948 155.51 537.766C155.083 537.578 154.583 537.411 154.01 537.266L152.189 536.797C150.872 536.458 149.83 535.945 149.064 535.258C148.304 534.565 147.924 533.646 147.924 532.5C147.924 531.557 148.179 530.732 148.689 530.023C149.205 529.315 149.906 528.766 150.791 528.375C151.676 527.979 152.679 527.781 153.799 527.781C154.934 527.781 155.929 527.979 156.783 528.375C157.643 528.766 158.317 529.31 158.807 530.008C159.296 530.701 159.549 531.497 159.564 532.398H156.775ZM169.879 544H166.785L172.418 528H175.996L181.637 544H178.543L174.27 531.281H174.145L169.879 544ZM169.98 537.727H178.418V540.055H169.98V537.727ZM183.744 544V528H189.744C190.973 528 192.005 528.229 192.838 528.687C193.676 529.146 194.309 529.776 194.736 530.578C195.169 531.375 195.385 532.281 195.385 533.297C195.385 534.323 195.169 535.234 194.736 536.031C194.304 536.828 193.666 537.456 192.822 537.914C191.979 538.367 190.939 538.594 189.705 538.594H185.729V536.211H189.314C190.033 536.211 190.622 536.086 191.08 535.836C191.538 535.586 191.877 535.242 192.096 534.805C192.32 534.367 192.432 533.865 192.432 533.297C192.432 532.729 192.32 532.229 192.096 531.797C191.877 531.365 191.536 531.029 191.072 530.789C190.614 530.544 190.023 530.422 189.299 530.422H186.643V544H183.744ZM197.902 544V528H203.902C205.132 528 206.163 528.229 206.996 528.687C207.835 529.146 208.467 529.776 208.895 530.578C209.327 531.375 209.543 532.281 209.543 533.297C209.543 534.323 209.327 535.234 208.895 536.031C208.462 536.828 207.824 537.456 206.98 537.914C206.137 538.367 205.098 538.594 203.863 538.594H199.887V536.211H203.473C204.191 536.211 204.78 536.086 205.238 535.836C205.697 535.586 206.035 535.242 206.254 534.805C206.478 534.367 206.59 533.865 206.59 533.297C206.59 532.729 206.478 532.229 206.254 531.797C206.035 531.365 205.694 531.029 205.23 530.789C204.772 530.544 204.181 530.422 203.457 530.422H200.801V544H197.902Z" fill="#D6D6D6"/>
</g>
<defs>
<clipPath id="clip0_11_2">
<rect width="1280" height="720" fill="white"/>
</clipPath>
</defs>
</svg>
