<?xml version="1.0" encoding="UTF-8"?>
<svg version="1.1" xmlns="http://www.w3.org/2000/svg" width="1200" height="1179">
<path d="M0 0 C1.05273558 0.02174963 1.05273558 0.02174963 2.12673855 0.04393864 C4.29974998 0.09457978 6.47056392 0.17118313 8.64257812 0.25366211 C9.91202774 0.29425751 11.18147736 0.33485291 12.48939514 0.37667847 C16.31420886 0.51652203 20.13607045 0.69035307 23.95898438 0.87475586 C25.3542323 0.93984991 26.74949116 1.0047098 28.14476013 1.0693512 C31.03290536 1.20398936 33.92091105 1.34122694 36.80883789 1.48046875 C40.4933268 1.6579282 44.1780826 1.8289381 47.86296177 1.99807644 C50.72936243 2.1303091 53.59560285 2.265784 56.46180534 2.40223885 C58.47515176 2.49756221 60.48862027 2.5902957 62.50209045 2.68296814 C68.27178474 2.96454751 73.94695576 3.2681776 79.64257812 4.25366211 C74.20924478 12.13011414 67.51768262 18.63916649 60.75585938 25.3515625 C59.44409121 26.66112654 58.13277306 27.9711415 56.8218689 29.28157043 C54.00926808 32.09124897 51.1935531 34.89775465 48.37533569 37.70179939 C43.91545802 42.13932018 39.46276234 46.58400151 35.01098633 51.02964783 C27.96726745 58.06200575 20.91888946 65.08967238 13.8684473 72.11528915 C1.24465869 84.69470205 -11.37354024 97.27971574 -23.98649693 109.86998934 C-28.40951769 114.28462439 -32.83533095 118.69643487 -37.26344299 123.10596287 C-40.02074578 125.85259066 -42.77599246 128.60127426 -45.53074265 131.35046196 C-46.80447523 132.62073689 -48.07907811 133.89013988 -49.35463333 135.15858459 C-58.17149586 143.91311516 -58.17149586 143.91311516 -66.35742188 153.25366211 C-65.18574463 153.27348145 -64.01406738 153.29330078 -62.80688477 153.3137207 C2.47468609 154.4554454 64.3645978 160.31338989 114.64257812 206.25366211 C115.46242188 207.00131836 116.28226563 207.74897461 117.12695312 208.51928711 C150.50847198 240.4803158 167.76900739 289.76060924 168.90640259 335.25582886 C168.96914013 339.297194 168.97316628 343.33692541 168.95507812 347.37866211 C168.9523439 348.65492462 168.9523439 348.65492462 168.94955444 349.95697021 C168.87382737 371.02685668 166.27187404 390.92700882 160.64257812 411.25366211 C160.43826172 411.9985791 160.23394531 412.74349609 160.0234375 413.51098633 C154.40962055 433.36874995 144.99883441 452.7305214 132.64257812 469.25366211 C131.96324219 470.17276367 131.28390625 471.09186523 130.58398438 472.03881836 C109.30361445 499.35331964 79.49022012 519.57817846 46.64257812 530.25366211 C58.60039882 553.02859035 71.28133496 575.43230305 83.78369141 597.91088867 C86.90516161 603.52412351 90.02371503 609.13897841 93.14257812 614.75366211 C94.39256431 617.00366979 95.6425643 619.25366979 96.89257812 621.50366211 C134.39257813 689.00366212 134.39257813 689.00366212 136.26904297 692.38134766 C137.51410484 694.62242657 138.75922167 696.86347494 140.00439453 699.10449219 C142.87355991 704.26846396 145.74227398 709.43268415 148.60884094 714.59809875 C149.92297863 716.96601412 151.23747708 719.33372915 152.55197144 721.70144653 C153.50387238 723.41646873 154.45518756 725.13181601 155.40649414 726.84716797 C158.11201128 731.72100571 160.82475247 736.58968241 163.58398438 741.43334961 C164.227146 742.5641394 164.227146 742.5641394 164.88330078 743.71777344 C165.65382954 745.06879234 166.4279651 746.4177638 167.20654297 747.76416016 C169.64257812 752.03409807 169.64257812 752.03409807 169.64257812 754.25366211 C140.93257812 754.25366211 112.22257812 754.25366211 82.64257812 754.25366211 C77.69257812 745.34366211 72.74257813 736.43366211 67.64257812 727.25366211 C63.55667061 719.94965044 59.46978302 712.64628253 55.37646484 705.34643555 C51.87846906 699.10698038 48.38471843 692.86514702 44.89013672 686.6237793 C41.98736835 681.43974413 39.08364454 676.25624939 36.17773438 671.07397461 C30.12197727 660.27162899 24.08648938 649.45853198 18.08007812 638.62866211 C13.46960133 630.31666659 8.83028138 622.02234987 4.14257812 613.75366211 C-1.18309152 604.3596589 -6.43961397 594.92857518 -11.67700195 585.48510742 C-16.11647795 577.48196651 -20.57302787 569.48872327 -25.04492188 561.50366211 C-25.90911743 559.9599292 -25.90911743 559.9599292 -26.79077148 558.38500977 C-29.07022079 554.317157 -29.07022079 554.317157 -31.35742188 550.25366211 C-31.80235489 549.06205978 -32.2472879 547.87045746 -32.70570374 546.64274597 C-34.16635981 544.12816466 -34.87988528 543.38543867 -37.7175169 542.6023922 C-40.92495841 542.3467334 -44.06856566 542.32310662 -47.28613281 542.3671875 C-48.50591324 542.35641174 -49.72569366 542.34563599 -50.98243713 542.33453369 C-54.32397951 542.31182371 -57.66276631 542.32003636 -61.00413418 542.34197545 C-64.49694505 542.35760681 -67.98948048 542.33374599 -71.48223877 542.31407166 C-78.09442877 542.28282772 -84.70609979 542.28710822 -91.31832242 542.30414623 C-98.84679427 542.32181595 -106.37498783 542.29989192 -113.90341902 542.27463925 C-129.38827841 542.22358546 -144.87247119 542.22748943 -160.35742188 542.25366211 C-160.35742188 557.43366211 -160.35742188 572.61366211 -160.35742188 588.25366211 C-116.13742187 588.25366211 -71.91742187 588.25366211 -26.35742188 588.25366211 C-26.35742188 608.38366211 -26.35742188 628.51366211 -26.35742188 649.25366211 C-70.57742188 649.25366211 -114.79742188 649.25366211 -160.35742188 649.25366211 C-160.35742188 661.79366211 -160.35742188 674.33366211 -160.35742188 687.25366211 C-116.13742187 687.25366211 -71.91742187 687.25366211 -26.35742188 687.25366211 C-26.35742188 708.37366211 -26.35742188 729.49366211 -26.35742188 751.25366211 C-100.60742188 751.25366211 -174.85742188 751.25366211 -251.35742188 751.25366211 C-251.35742188 504.74366211 -251.35742188 258.23366211 -251.35742188 4.25366211 C-220.66742188 4.25366211 -189.97742188 4.25366211 -158.35742188 4.25366211 C-158.35742188 53.75366211 -158.35742188 103.25366211 -158.35742188 154.25366211 C-154.44105505 151.90384202 -152.06979935 150.2148413 -148.98242188 147.06616211 C-148.2734375 146.35073242 -147.56445312 145.63530273 -146.83398438 144.89819336 C-144.90406534 142.83738076 -143.06042437 140.75127647 -141.22460938 138.60913086 C-135.84908439 132.42734944 -129.92581044 126.77865055 -124.09570312 121.03100586 C-120.24046284 117.20914427 -116.41875175 113.41174359 -112.88867188 109.28491211 C-107.90661699 103.46761307 -102.35031312 98.19035314 -96.90039062 92.81713867 C-91.81088221 87.79279243 -86.83646403 82.74158698 -82.18554688 77.30444336 C-77.42546268 71.96460532 -72.18770149 67.05098161 -67.09570312 62.03100586 C-63.23002424 58.19879606 -59.39948264 54.38955124 -55.85742188 50.25366211 C-50.64061901 44.16225947 -44.80254447 38.65712809 -39.09570312 33.03100586 C-33.26376335 27.24955907 -27.78680072 21.3063205 -22.48486328 15.04077148 C-20.50422023 12.7381326 -18.46921312 10.49525651 -16.41992188 8.25366211 C-15.4521582 7.09157227 -15.4521582 7.09157227 -14.46484375 5.90600586 C-9.89268332 1.019267 -6.70962926 -0.17850282 0 0 Z M-119.35742188 232.25366211 C-117.9464496 235.84594823 -116.38648952 239.22055224 -114.55664062 242.62084961 C-113.9986377 243.65894775 -113.44063477 244.6970459 -112.86572266 245.76660156 C-112.2648584 246.87608154 -111.66399414 247.98556152 -111.04492188 249.12866211 C-110.41827637 250.28906006 -109.79163086 251.44945801 -109.14599609 252.64501953 C-104.65655244 260.93909447 -100.05466367 269.16629304 -95.39086914 277.36352539 C-91.02587838 285.04302751 -86.74184007 292.76533802 -82.48242188 300.50366211 C-81.12178901 302.97504062 -79.76112453 305.44640173 -78.40039062 307.91772461 C-78.06343674 308.52975235 -77.72648285 309.14178009 -77.37931824 309.77235413 C-72.02384447 319.49555482 -66.62092418 329.19246949 -61.22509766 338.89331055 C-59.328097 342.30642388 -57.43414358 345.72121189 -55.54101562 349.13647461 C-49.707419 359.65695627 -43.85624755 370.16575044 -37.91992188 380.62866211 C-32.35839864 390.43423484 -26.90022913 400.29493068 -21.46386719 410.17016602 C-20.78907693 411.39592266 -20.11427221 412.62167134 -19.43945312 413.84741211 C-19.10456879 414.45571869 -18.76968445 415.06402527 -18.4246521 415.69076538 C-14.69000374 422.47113117 -10.93147586 429.23819579 -7.16992188 436.00366211 C-6.55842285 437.10355469 -5.94692383 438.20344727 -5.31689453 439.33666992 C-4.18421867 441.37352977 -3.05141504 443.41031857 -1.91845703 445.44702148 C0.27001675 449.38175633 2.45649958 453.31759613 4.64257812 457.25366211 C10.18606612 456.73798881 14.34249528 455.30538648 19.26757812 452.75366211 C19.96415527 452.39546387 20.66073242 452.03726563 21.37841797 451.66821289 C47.52452259 437.91181683 63.59242441 417.34579472 72.33007812 389.25366211 C82.61378562 353.91178452 79.22585023 314.44632518 61.88476562 281.96069336 C57.89143401 275.3763396 52.94712393 269.80670916 47.64257812 264.25366211 C47.10246094 263.6387793 46.56234375 263.02389648 46.00585938 262.39038086 C25.64567971 240.08136788 -7.74796342 234.14635764 -36.35742188 232.25366211 C-43.09124791 231.96837853 -49.82626997 232.01674833 -56.56445312 232.05834961 C-58.39531802 232.0620956 -60.22618497 232.06493503 -62.05705261 232.06692505 C-66.7964363 232.074437 -71.53569064 232.09397291 -76.27502441 232.11633301 C-81.14296724 232.13706513 -86.01093168 232.14598428 -90.87890625 232.15600586 C-100.37180056 232.17723519 -109.86460032 232.21121361 -119.35742188 232.25366211 Z M-160.35742188 320.25366211 C-160.35742188 368.10366211 -160.35742188 415.95366211 -160.35742188 465.25366211 C-133.29742187 465.25366211 -106.23742187 465.25366211 -78.35742188 465.25366211 C-83.33582765 455.91915128 -88.33045562 446.61517707 -93.48242188 437.37866211 C-94.13150647 436.21285236 -94.78051172 435.04699842 -95.42944336 433.88110352 C-101.4744885 423.02522966 -107.54630064 412.18431329 -113.62353516 401.34643555 C-117.12153094 395.10698038 -120.61528157 388.86514702 -124.10986328 382.6237793 C-127.01263165 377.43974413 -129.91635546 372.25624939 -132.82226562 367.07397461 C-133.39557617 366.05110352 -133.96888672 365.02823242 -134.55957031 363.97436523 C-135.70936091 361.92324751 -136.85974417 359.8724619 -138.01074219 357.82202148 C-141.20006435 352.13334883 -144.36371809 346.4315454 -147.50195312 340.71459961 C-148.5345366 338.83835361 -149.56751966 336.96232814 -150.60061646 335.08636475 C-151.26825265 333.87105682 -151.93386494 332.65463471 -152.59738159 331.43707275 C-153.51773576 329.74827404 -154.44522165 328.06336779 -155.37304688 326.37866211 C-155.90188477 325.41186523 -156.43072266 324.44506836 -156.97558594 323.44897461 C-158.16925713 321.13160978 -158.16925713 321.13160978 -160.35742188 320.25366211 Z " fill="#FFFFE8" transform="translate(640.357421875,183.746337890625)"/>
</svg>
